HIERARCHY
ROOT joint_Root
{
	OFFSET 0.0 0.0 0.0
	CHANNELS 6 Xposition Yposition Zposition Zrotation Xrotation Yrotation 
	JOINT Hips
	{
		OFFSET 4.5925 91.4895 -427.239
		CHANNELS 6 Xposition Yposition Zposition Zrotation Xrotation Yrotation 
		JOINT Spine
		{
			OFFSET 15.7357 0.0 0.0
			CHANNELS 6 Xposition Yposition Zposition Zrotation Xrotation Yrotation 
			JOINT Chest
			{
				OFFSET 8.98455 -0.406207 0.0
				CHANNELS 6 Xposition Yposition Zposition Zrotation Xrotation Yrotation 
				JOINT Neck
				{
					OFFSET 16.3773 0.0 0.0
					CHANNELS 6 Xposition Yposition Zposition Zrotation Xrotation Yrotation 
					JOINT Head
					{
						OFFSET 6.45672 0.0 0.0
						CHANNELS 6 Xposition Yposition Zposition Zrotation Xrotation Yrotation 
						End Site
						{
							OFFSET 0.0 0.0 0.0
						}
					}
				}
				JOINT Shoulder_L
				{
					OFFSET 12.9942 -0.242716 4.98039
					CHANNELS 6 Xposition Yposition Zposition Zrotation Xrotation Yrotation 
					JOINT UpperArm_L
					{
						OFFSET 5.34809 0.0 0.0
						CHANNELS 6 Xposition Yposition Zposition Zrotation Xrotation Yrotation 
						JOINT LowerArm_L
						{
							OFFSET 24.3286 1.87007e-05 0.0
							CHANNELS 6 Xposition Yposition Zposition Zrotation Xrotation Yrotation 
							JOINT Hand_L
							{
								OFFSET 22.2916 0.0 0.0
								CHANNELS 6 Xposition Yposition Zposition Zrotation Xrotation Yrotation 
								End Site
								{
									OFFSET 0.0 0.0 0.0
								}
							}
						}
					}
				}
				JOINT Shoulder_R
				{
					OFFSET 12.9945 -0.242716 -4.98039
					CHANNELS 6 Xposition Yposition Zposition Zrotation Xrotation Yrotation 
					JOINT UpperArm_R
					{
						OFFSET -5.34813 0.0 0.0
						CHANNELS 6 Xposition Yposition Zposition Zrotation Xrotation Yrotation 
						JOINT LowerArm_R
						{
							OFFSET -24.3289 0.000322201 0.0
							CHANNELS 6 Xposition Yposition Zposition Zrotation Xrotation Yrotation 
							JOINT Hand_R
							{
								OFFSET -22.2915 -0.000108084 0.0
								CHANNELS 6 Xposition Yposition Zposition Zrotation Xrotation Yrotation 
								End Site
								{
									OFFSET 0.0 0.0 0.0
								}
							}
						}
					}
				}
			}
		}
		JOINT UpperLeg_L
		{
			OFFSET -2.19248 -6.46944 0.0
			CHANNELS 6 Xposition Yposition Zposition Zrotation Xrotation Yrotation 
			JOINT LowerLeg_L
			{
				OFFSET 39.0811 0.0 -1.23785e-05
				CHANNELS 6 Xposition Yposition Zposition Zrotation Xrotation Yrotation 
				JOINT Foot_L
				{
					OFFSET 40.9854 0.0 -1.26872e-05
					CHANNELS 6 Xposition Yposition Zposition Zrotation Xrotation Yrotation 
					JOINT Toes_L
					{
						OFFSET 11.7543 0.0 0.0
						CHANNELS 6 Xposition Yposition Zposition Zrotation Xrotation Yrotation 
						End Site
						{
							OFFSET 0.0 0.0 0.0
						}
					}
				}
			}
		}
		JOINT UpperLeg_R
		{
			OFFSET -2.19251 6.46944 0.0
			CHANNELS 6 Xposition Yposition Zposition Zrotation Xrotation Yrotation 
			JOINT LowerLeg_R
			{
				OFFSET -39.0811 -0.00228153 -0.0401928
				CHANNELS 6 Xposition Yposition Zposition Zrotation Xrotation Yrotation 
				JOINT Foot_R
				{
					OFFSET -40.9854 0.0 0.0
					CHANNELS 6 Xposition Yposition Zposition Zrotation Xrotation Yrotation 
					JOINT Toes_R
					{
						OFFSET -11.7543 0.0 0.0
						CHANNELS 6 Xposition Yposition Zposition Zrotation Xrotation Yrotation 
						End Site
						{
							OFFSET 0.0 0.0 0.0
						}
					}
				}
			}
		}
	}
}
MOTION
Frames:	7
Frame Time:	0.0333333
0.000000 0.000000 0.000000 0.000000 0.000000 -0.000000 -5.851620 91.593600 70.506900 -90.412600 15.956000 167.133000 15.735700 0.000005 -0.000001 134.591000 82.192800 -136.009000 8.984550 -0.406207 -0.000000 3.547500 11.001200 -3.181030 16.377300 -0.000001 -0.000001 0.130547 -1.838360 1.215950 6.456720 -0.000001 -0.000000 -9.842170 -7.458280 1.672780 12.994200 -0.242716 4.980390 -85.798800 -7.809120 -61.603600 5.348090 -0.000007 -0.000001 -59.648000 -0.039582 25.937600 24.328600 0.000019 0.000005 13.939600 13.921900 -45.891200 22.291600 -0.000001 0.000005 -1.157920 5.458210 -4.939740 12.994500 -0.242716 -4.980390 90.387200 -2.512940 -81.237400 -5.348130 -0.000001 -0.000004 -51.308200 10.572400 -38.810300 -24.328900 0.000322 -0.000009 -9.917880 -0.876193 -85.001100 -22.291500 -0.000108 -0.000004 10.799700 5.509600 -6.924310 -2.192480 -6.469440 -0.000000 177.284000 -3.818880 -52.332500 39.081100 -0.000007 -0.000012 0.182420 -0.103329 60.470100 40.985400 -0.000006 -0.000013 7.450340 -0.358071 -61.932400 11.754300 -0.000000 0.000003 -0.004184 -0.053345 -18.746800 -2.192510 6.469440 -0.000001 162.536000 20.933100 -173.583000 -39.081100 -0.002282 -0.040193 0.197488 -0.396692 26.081700 -40.985400 0.000008 0.000006 -4.112810 21.497700 -26.428400 -11.754300 -0.000006 -0.000006 -0.012427 -0.120954 -21.504500
0.000000 0.000000 0.000000 0.000000 0.000000 -0.000000 -5.548010 92.453900 57.964300 -88.102900 18.022200 166.400000 15.735700 0.000005 -0.000001 142.773000 81.573300 -144.283000 8.984550 -0.406207 -0.000000 2.677900 13.475400 -3.344850 16.377300 -0.000001 -0.000001 0.305776 -2.386230 0.888387 6.456720 -0.000001 -0.000000 -8.533910 -9.459320 3.251740 12.994200 -0.242716 4.980390 -85.312600 -8.553980 -61.134300 5.348090 -0.000007 -0.000001 -59.221400 -4.362230 27.017400 24.328600 0.000019 0.000005 15.347300 13.312300 -50.004000 22.291600 -0.000001 0.000005 0.333427 5.429310 -3.917320 12.994500 -0.242716 -4.980390 90.335900 -2.355960 -81.883000 -5.348130 -0.000001 -0.000004 -51.772700 13.957800 -36.660700 -24.328900 0.000322 -0.000009 -9.368760 -1.527350 -80.819800 -22.291500 -0.000108 -0.000004 11.385000 5.515490 -7.171140 -2.192480 -6.469440 -0.000000 -178.698000 -6.599850 -45.592600 39.081100 -0.000007 -0.000012 0.080986 -0.108419 36.758200 40.985400 -0.000006 -0.000013 5.466270 0.382627 -66.697500 11.754300 -0.000000 0.000003 -0.004433 -0.055882 -18.850200 -2.192510 6.469440 -0.000001 159.406000 22.847100 -170.500000 -39.081100 -0.002282 -0.040193 0.326651 -0.525571 31.602200 -40.985400 0.000008 0.000006 -0.877911 18.202200 -29.647000 -11.754300 -0.000006 -0.000006 -0.011179 -0.112249 -21.148000
0.000000 0.000000 0.000000 0.000000 0.000000 -0.000000 -4.947310 92.103900 44.992900 -84.649800 19.966800 167.441000 15.735700 0.000005 -0.000001 146.093000 80.518100 -147.073000 8.984550 -0.406207 -0.000000 3.051750 15.763900 -2.391310 16.377300 -0.000001 -0.000001 -0.110759 -2.259560 0.725830 6.456720 -0.000001 -0.000000 -6.648090 -10.611900 4.472130 12.994200 -0.242716 4.980390 -85.778400 -7.571420 -60.741700 5.348090 -0.000007 -0.000001 -58.167000 -7.538880 26.205600 24.328600 0.000019 0.000005 16.706700 13.169300 -52.798700 22.291600 -0.000001 0.000005 0.973391 5.406120 -3.139020 12.994500 -0.242716 -4.980390 90.235200 -1.689130 -82.071200 -5.348130 -0.000001 -0.000004 -53.926900 17.524400 -33.052200 -24.328900 0.000322 -0.000009 -9.137770 -2.368590 -75.588800 -22.291500 -0.000108 -0.000004 11.153000 5.517480 -7.254870 -2.192480 -6.469440 -0.000000 -173.572000 -9.660440 -37.536500 39.081100 -0.000007 -0.000012 0.009473 -0.029190 17.979300 40.985400 -0.000006 -0.000013 3.775730 -1.009750 -71.572700 11.754300 -0.000000 0.000003 -0.006040 -0.071211 -19.475000 -2.192510 6.469440 -0.000001 160.450000 16.059300 -166.878000 -39.081100 -0.002282 -0.040193 0.450293 -0.567940 38.206400 -40.985400 0.000008 0.000006 1.457100 7.123740 -27.488100 -11.754300 -0.000006 -0.000006 -0.009709 -0.101454 -20.706300
0.000000 0.000000 0.000000 0.000000 0.000000 -0.000000 -4.589270 90.976600 32.215600 -83.319400 19.942700 168.544000 15.735700 0.000005 -0.000001 144.258000 80.358000 -145.273000 8.984550 -0.406207 -0.000000 3.757560 15.667600 -2.553570 16.377300 -0.000001 -0.000001 0.178198 -1.910830 1.090330 6.456720 -0.000001 -0.000000 -6.426480 -10.452100 5.732520 12.994200 -0.242716 4.980390 -86.913200 -5.529420 -60.766200 5.348090 -0.000007 -0.000001 -57.596000 -10.897200 23.111100 24.328600 0.000019 0.000005 17.109300 13.339100 -53.147800 22.291600 -0.000001 0.000005 1.619240 5.385180 -2.462800 12.994500 -0.242716 -4.980390 90.005100 -0.038709 -82.572000 -5.348130 -0.000001 -0.000004 -57.239700 20.495000 -28.145000 -24.328900 0.000322 -0.000009 -8.826500 -3.414810 -69.008400 -22.291500 -0.000108 -0.000004 11.943700 5.529420 -7.768580 -2.192480 -6.469440 -0.000000 -175.188000 -17.276200 -35.621300 39.081100 -0.000007 -0.000012 -0.024787 0.110953 12.592900 40.985400 -0.000006 -0.000013 -1.718220 -0.815280 -74.325300 11.754300 -0.000000 0.000003 -0.006781 -0.077780 -19.743000 -2.192510 6.469440 -0.000001 164.353000 7.977190 -164.922000 -39.081100 -0.002282 -0.040193 0.573841 -0.523162 47.484000 -40.985400 0.000008 0.000006 4.391440 -0.027866 -24.567400 -11.754300 -0.000006 -0.000006 -0.008798 -0.094426 -20.419100
0.000000 0.000000 0.000000 0.000000 0.000000 -0.000000 -4.390610 88.858500 19.801600 -83.851800 17.187800 170.198000 15.735700 0.000005 -0.000001 136.726000 80.846400 -138.045000 8.984550 -0.406207 -0.000000 5.048570 13.334300 -3.236140 16.377300 -0.000001 -0.000001 0.302320 -1.899140 1.387030 6.456720 -0.000001 -0.000000 -6.960380 -9.801930 6.803770 12.994200 -0.242716 4.980390 -88.309200 -3.158110 -61.822400 5.348090 -0.000007 -0.000001 -58.257500 -12.410500 17.684700 24.328600 0.000019 0.000005 15.767400 13.140600 -51.159300 22.291600 -0.000001 0.000005 1.839780 5.374210 -2.117070 12.994500 -0.242716 -4.980390 89.719400 2.060680 -82.250000 -5.348130 -0.000001 -0.000004 -59.875400 23.179900 -22.503400 -24.328900 0.000322 -0.000009 -8.061320 -4.277420 -62.224100 -22.291500 -0.000108 -0.000004 12.447800 5.549120 -8.665740 -2.192480 -6.469440 -0.000000 -178.367000 -20.402900 -40.147700 39.081100 -0.000007 -0.000012 0.232548 -0.500927 24.902700 40.985400 -0.000006 -0.000013 1.031770 -5.075660 -75.702700 11.754300 -0.000000 0.000003 -0.008429 -0.091512 -20.303700 -2.192510 6.469440 -0.000001 169.636000 3.053960 -165.540000 -39.081100 -0.002282 -0.040193 0.733906 -0.382885 62.347700 -40.985400 0.000008 0.000006 2.269360 2.855540 -18.624500 -11.754300 -0.000006 -0.000006 -0.008839 -0.094744 -20.432000
0.000000 0.000000 0.000000 0.000000 0.000000 -0.000000 -4.737160 86.258600 9.152500 -88.139300 12.142800 168.795000 15.735700 0.000005 -0.000001 125.301000 82.367600 -128.083000 8.984550 -0.406207 -0.000000 4.961870 8.872370 -5.951440 16.377300 -0.000001 -0.000001 -0.161432 -2.235850 1.782120 6.456720 -0.000001 -0.000000 -8.943740 -9.341520 7.841950 12.994200 -0.242716 4.980390 -90.383900 0.783365 -63.840600 5.348090 -0.000007 -0.000001 -57.321700 -9.779210 9.235850 24.328600 0.000019 0.000005 12.187000 10.958800 -48.644100 22.291600 -0.000001 0.000005 0.245757 5.412930 -3.374760 12.994500 -0.242716 -4.980390 89.045600 6.054030 -81.026300 -5.348130 -0.000001 -0.000004 -59.146400 25.592200 -16.625100 -24.328900 0.000322 -0.000009 -8.387920 -5.781040 -55.663100 -22.291500 -0.000108 -0.000004 10.944900 5.561840 -9.283130 -2.192480 -6.469440 -0.000000 176.474000 -16.618700 -49.117900 39.081100 -0.000007 -0.000012 0.252682 -0.288874 41.176700 40.985400 -0.000006 -0.000013 2.415180 -4.025900 -57.847200 11.754300 -0.000000 0.000003 -0.006901 -0.078817 -19.785300 -2.192510 6.469440 -0.000001 171.619000 4.480720 -176.136000 -39.081100 -0.002282 -0.040193 0.921119 -0.091492 84.312800 -40.985400 0.000008 0.000006 -2.761460 5.384070 -10.679000 -11.754300 -0.000006 -0.000006 -0.008195 -0.089618 -20.222600
0.000000 0.000000 0.000000 0.000000 0.000000 -0.000000 -5.335760 83.106400 -1.460860 -92.885100 6.304320 170.544000 15.735700 0.000005 -0.000001 105.628000 82.113000 -109.613000 8.984550 -0.406207 -0.000000 7.600900 4.238330 -8.247150 16.377300 -0.000001 -0.000001 -3.139740 -3.808180 1.762990 6.456720 -0.000001 -0.000000 -8.822460 -9.072110 8.898910 12.994200 -0.242716 4.980390 -92.334000 5.642130 -67.471200 5.348090 -0.000007 -0.000001 -53.388200 -5.433530 -0.982396 24.328600 0.000019 0.000005 10.165700 8.615110 -50.125600 22.291600 -0.000001 0.000005 0.057759 5.443540 -4.412440 12.994500 -0.242716 -4.980390 88.250500 9.909780 -79.938800 -5.348130 -0.000001 -0.000004 -59.081200 25.393900 -8.565000 -24.328900 0.000322 -0.000009 -11.481100 -10.736200 -47.494400 -22.291500 -0.000108 -0.000004 7.968390 5.553450 -8.862040 -2.192480 -6.469440 -0.000000 174.963000 -6.535440 -48.427400 39.081100 -0.000007 -0.000012 -0.391141 0.257819 56.610200 40.985400 -0.000006 -0.000013 -0.025757 -6.363290 -68.535300 11.754300 -0.000000 0.000003 -0.000202 -0.003327 -16.712600 -2.192510 6.469440 -0.000001 171.029000 8.718390 173.444000 -39.081100 -0.002282 -0.040193 1.035190 0.299680 106.197000 -40.985400 0.000008 0.000006 -3.126460 2.357340 -4.463560 -11.754300 -0.000006 -0.000006 -0.008210 -0.089737 -20.227400
